<?xml version="1.0" standalone="no"?>
<!DOCTYPE svg PUBLIC "-//W3C//DTD SVG 20010904//EN"
 "http://www.w3.org/TR/2001/REC-SVG-20010904/DTD/svg10.dtd">
<svg version="1.0" xmlns="http://www.w3.org/2000/svg"
 width="1149.000000pt" height="1149.000000pt" viewBox="0 0 1149.000000 1149.000000"
 preserveAspectRatio="xMidYMid meet">
<metadata>
Created by potrace 1.11, written by Peter Selinger 2001-2013
</metadata>
<g transform="translate(0.000000,1149.000000) scale(0.100000,-0.100000)"
fill="#000000" stroke="none">
<path d="M180 11449 c-55 -25 -105 -71 -133 -124 l-22 -40 -2 -3010 -3 -3010
24 -50 c27 -59 65 -99 121 -128 57 -30 174 -30 231 0 44 24 93 74 121 126 17
30 18 178 21 2885 l2 2852 2828 1 c1555 0 2835 2 2844 4 81 16 153 68 191 139
31 58 30 174 -1 233 -26 51 -63 87 -117 116 l-40 22 -3010 2 c-3008 3 -3010 3
-3055 -18z"/>
<path d="M2106 9550 c-70 -21 -145 -98 -167 -171 -16 -54 -15 -5996 1 -6046
12 -35 40 -84 65 -109 5 -6 32 -23 60 -39 67 -40 165 -41 240 -4 58 29 116 99
132 160 8 29 11 846 11 2866 0 1553 2 2827 5 2830 3 3 1279 5 2834 5 3120 0
2875 -5 2958 63 60 49 90 114 89 200 0 51 -6 81 -22 111 -27 53 -100 117 -150
132 -47 14 -6009 16 -6056 2z"/>
<path d="M3979 7710 c-83 -15 -155 -78 -193 -170 -22 -53 -22 -5976 0 -6050
33 -111 135 -184 253 -181 70 2 132 30 181 81 77 80 70 -193 70 2972 l0 2836
2833 0 c2038 0 2843 3 2873 11 53 14 116 60 144 105 86 139 36 311 -110 380
l-45 21 -2985 1 c-1642 1 -3001 -2 -3021 -6z"/>
<path d="M11150 6411 c-71 -23 -131 -74 -166 -141 -18 -34 -19 -127 -22 -2887
l-2 -2853 -2783 0 c-1530 0 -2813 -2 -2852 -3 -80 -4 -132 -26 -181 -79 -54
-57 -69 -95 -69 -178 0 -108 45 -183 138 -233 l42 -22 3020 0 3020 0 40 22
c75 42 114 89 134 163 9 35 11 741 9 3040 l-3 2995 -21 40 c-47 87 -122 136
-219 141 -33 2 -71 0 -85 -5z"/>
<path d="M7527 6364 c-1 -1 -42 -4 -92 -8 -49 -3 -101 -8 -115 -10 -14 -3 -43
-7 -65 -11 -35 -5 -76 -11 -125 -20 -38 -7 -192 -49 -260 -70 -126 -40 -209
-73 -345 -140 -543 -265 -970 -719 -1205 -1283 -33 -78 -94 -252 -105 -302
-51 -214 -58 -253 -80 -455 -8 -70 -5 -479 3 -484 4 -3 9 -17 10 -31 1 -23 35
-208 46 -255 14 -62 20 -86 38 -145 49 -158 71 -214 154 -385 92 -189 139
-267 263 -430 219 -288 544 -553 881 -717 270 -131 578 -218 860 -244 152 -14
469 -8 569 11 9 1 37 6 63 9 250 34 589 153 838 294 270 154 522 365 697 584
32 40 61 75 64 78 8 6 139 204 166 250 91 153 221 458 248 580 2 8 10 42 19
76 17 67 43 197 51 259 20 147 22 201 20 380 -2 110 -6 218 -9 240 -3 22 -11
74 -17 115 -49 347 -211 749 -423 1049 -113 161 -274 339 -401 446 -33 28 -62
53 -65 56 -3 3 -48 37 -100 76 -381 280 -817 442 -1285 479 -81 6 -293 12
-298 8z m313 -458 c246 -27 479 -95 690 -201 139 -69 142 -71 238 -135 94 -62
92 -52 54 -190 -82 -298 -186 -468 -327 -539 -67 -34 -129 -33 -275 0 -151 36
-294 47 -382 30 -259 -50 -481 -296 -582 -644 -22 -76 -65 -277 -80 -378 -9
-60 -56 -282 -65 -309 -5 -14 -13 -34 -17 -45 -4 -11 -7 -22 -6 -25 2 -13 -55
-104 -71 -114 -23 -15 -90 21 -145 77 -80 83 -126 177 -197 412 -105 348 -154
468 -245 598 -47 70 -141 170 -202 217 -102 78 -230 123 -354 123 l-81 0 36
66 c327 594 926 990 1596 1056 39 4 71 8 72 9 6 5 284 -2 343 -8z m1495 -903
c274 -411 389 -897 330 -1398 -1 -16 -8 -29 -13 -28 -19 4 -67 12 -109 17 -24
3 -62 9 -85 12 -147 22 -407 6 -568 -35 -159 -41 -327 -132 -442 -240 -181
-170 -282 -360 -343 -644 -24 -112 -23 -371 1 -502 12 -66 44 -203 58 -247 8
-26 12 -49 8 -52 -4 -2 -45 -13 -92 -24 -81 -19 -107 -24 -245 -42 -93 -12
-409 -4 -515 13 -935 153 -1640 895 -1734 1829 -6 56 32 261 61 328 3 8 13 33
22 55 57 145 174 299 219 290 48 -9 107 -58 172 -141 50 -65 101 -196 184
-470 92 -303 173 -464 298 -594 348 -363 782 -286 958 171 16 43 41 122 55
176 23 87 33 130 51 238 52 299 87 433 136 530 54 108 116 170 183 185 30 7
87 -1 215 -30 25 -6 59 -13 75 -16 17 -3 46 -9 66 -13 39 -9 174 -7 228 3 299
57 550 313 687 700 l28 79 28 -34 c16 -19 53 -71 83 -116z m162 -1855 l52 -13
-42 -95 c-135 -306 -344 -578 -597 -779 -117 -93 -283 -201 -310 -201 -9 0
-35 104 -54 221 -43 261 29 541 178 693 104 107 185 146 381 185 59 12 332 4
392 -11z"/>
</g>
</svg>
