<svg xmlns="http://www.w3.org/2000/svg" height="800" width="1200" preserveAspectRatio="xMinYMid" viewBox="-25.23 -9 218.66 54"><path d="M23.4 36H12.6c-.1 0-.2 0-.3-.1l-8.7-6.5c-.1-.1-.2-.2-.2-.3L0 18.6v-.3L3.4 6.9c0-.1.1-.2.2-.3L12.5.1c.1-.1.2-.1.3-.1h10.4c.1 0 .2 0 .3.1l8.9 6.5c.1.1.2.2.2.3L36 18.2v.3l-3.3 10.6c0 .1-.1.2-.2.3l-8.7 6.5c-.2.1-.3.1-.4.1m-10.3-1.1H22c-3.5-3.4-7-6.4-10.6-9.1.3 2.9.9 6 1.7 9.1m-1.3-10.2c3.9 2.8 7.5 6 11.3 9.6.9-4.8 1.4-9.4 1.6-13.8-4.8 1-9.3 2.5-12.9 4.2M25.7 21c-.2 4.2-.7 8.6-1.5 13.1l7.2-5.3c-1.7-3.2-3.5-5.8-5.7-7.8M4.8 28.9l6.9 5.1c-.7-2.9-1.2-5.8-1.5-8.6-2.1 1.1-3.9 2.3-5.4 3.5m-3.3-9.3L4.2 28c1.5-1.2 3.3-2.4 5.4-3.5-2.7-1.8-5.3-3.5-8.1-4.9m24.9.5c2.1 2 4 4.4 5.6 7.4l2.7-8.4c-2.7.1-5.5.5-8.3 1M11 12.8c-.3 3.5-.3 7.2.1 10.9 3.7-1.7 8.1-3.2 12.8-4.2-2.8-2.1-5.7-3.4-8.7-4.8-1.4-.6-2.8-1.2-4.2-1.9m-9.5 5.5c2.9 1.5 5.7 3.2 8.4 5.1-.3-3.6-.3-7.1-.1-10.6-3.2 1.5-6 3.4-8.3 5.5m23.8-9.2c.4 3.2.5 6.6.5 9.9 2.9-.6 5.8-1 8.5-1.2-2.7-3.2-5.6-6-9-8.7m-13.4 2.8c1.2.6 2.4 1.1 3.8 1.7 3 1.3 6 2.7 9 4.9 0-3.4-.1-6.8-.6-10.1-4.5.9-8.6 2-12.2 3.5M4.2 8.1l-2.5 8.5c2.1-1.8 4.7-3.4 7.6-4.8-2-1.1-3.6-2.3-5.1-3.7m21.8.1c3 2.3 5.7 4.9 8.1 7.7l-2.4-8.3-5.7.6M13.1 1.4c-.9 3.1-1.6 6.3-2 9.6 3.6-1.5 7.6-2.7 12-3.4-2.7-2.1-5.9-4-10-6.2M4.8 7.1C6.3 8.6 8 9.8 10 11c.3-3 .9-6 1.7-8.9zm19.3-5.2c.4 1.7.7 3.5 1 5.3 1.8-.3 3.6-.5 5.4-.6zM15 1.1c3.4 1.9 6.3 3.7 8.8 5.5-.3-1.8-.6-3.7-1.1-5.5z" fill="#ff000a"/><path d="M93.4 9.1L87 26.8h3.6l1.1-3.1H98l1 3.1h3.6L96.1 9.1zm-.8 11.7l2.2-6.4 2.2 6.4zm25.6-6.2c0-3-2.1-5.4-5.7-5.4h-6.9v17.7h3.5v-7.1h2.5l3.5 7.1h4l-4-7.6c1.5-.7 3.1-2.2 3.1-4.7zm-6 2.3h-3.3v-4.7h3.3c1.5 0 2.5 1 2.5 2.3 0 1.4-1 2.4-2.5 2.4zm22.6-2.3c0-3-2.1-5.4-5.7-5.4h-6.9v17.7h3.5v-7.1h2.5l3.5 7.1h4l-4-7.6c1.6-.7 3.1-2.2 3.1-4.7zm-6 2.3h-3.3v-4.7h3.3c1.5 0 2.5 1 2.5 2.3.1 1.4-.9 2.4-2.5 2.4zm10-7.8h3.5v17.7h-3.5zm18.2 8.8c.9.9 1.4 2.2 1.4 3.8 0 3.4-2.9 5.4-6.6 5.4-2.7 0-4.7-.6-6.5-2.3l2.2-2.2c1.1 1.1 2.6 1.5 4.3 1.5 2 0 3.1-.8 3.1-2.2 0-.6-.2-1.1-.5-1.5-.3-.3-.7-.5-1.6-.6l-2.1-.3c-1.5-.2-2.6-.7-3.4-1.5-.8-.8-1.3-2-1.3-3.5 0-3.2 2.3-5.4 6.2-5.4 2.4 0 4.2.6 5.7 2.1l-2.2 2.2c-1.1-1.1-2.5-1.2-3.6-1.2-1.8 0-2.7 1-2.7 2.2 0 .4.1.9.5 1.3.3.3.9.6 1.6.7l2.1.3c1.6 0 2.6.5 3.4 1.2zm-89.6 3.8c0 3.5-2.6 5.3-5.6 5.3-2.5 0-4.9-1.2-5.5-3.9l3.1-1.3c0 1.6 1.1 2.3 2.4 2.3 1.4 0 2.4-.9 2.4-2.5 0-1.5-.9-2.4-2.5-2.4h-.1v-2.8h.1c1.6 0 2.2-1 2.2-2.2 0-1.5-1-2.3-2.2-2.3-1.2 0-2.1.8-2.2 2.1l-3.1-1.3c.6-2.4 2.7-3.8 5.2-3.8C64.7 8.9 67 11 67 14c0 1.9-.9 3-2 3.6 1.4.8 2.4 2 2.4 4.1zM80.5 9.1H84v17.7h-3.5v-7.4h-6v7.4H71V9.1h3.5v7.2h6zm-32 14.7H54v3.1h-9V9.1h3.5zM161.1 9.6h2.9v.6h-1.1v3.5h-.6v-3.5h-1.1v-.6zm7.1 0v4.1h-.6V11l-.9 1.9h-.5l-.9-1.9v2.7h-.6V9.6h.6l1.2 2.5 1.1-2.5z" fill="#283030"/></svg>