<?xml version="1.0" encoding="UTF-8" standalone="no"?>
<svg
   xmlns:svg="http://www.w3.org/2000/svg"
   xmlns="http://www.w3.org/2000/svg"
   xmlns:sodipodi="http://sodipodi.sourceforge.net/DTD/sodipodi-0.dtd"
   xmlns:inkscape="http://www.inkscape.org/namespaces/inkscape"
   data-name="Layer 1"
   viewBox="0 0 1153 247"
   version="1.1"
   sodipodi:docname="pixel8 logo.svg"
   width="1153"
   height="247"
   inkscape:version="0.92.4 (5da689c313, 2019-01-14)">
  <sodipodi:namedview
     pagecolor="#ffffff"
     bordercolor="#666666"
     borderopacity="1"
     objecttolerance="10"
     gridtolerance="10"
     guidetolerance="10"
     inkscape:pageopacity="0"
     inkscape:pageshadow="2"
     inkscape:window-width="1920"
     inkscape:window-height="1017"
     showgrid="false"
     inkscape:zoom="0.26140873"
     inkscape:cx="464.19775"
     inkscape:cy="-426.93089"
     inkscape:window-x="0"
     inkscape:window-y="27"
     inkscape:window-maximized="1" />
  <defs>
    <linearGradient
       id="New_Gradient_Swatch_1"
       x1="4.3432999"
       y1="121.1819"
       x2="1147.291"
       y2="121.1819"
       gradientUnits="userSpaceOnUse">
      <stop
         offset="0"
         stop-color="#3991d3"
         id="stop905" />
      <stop
         offset="0.2005"
         stop-color="#60b3cb"
         id="stop907" />
      <stop
         offset="0.368"
         stop-color="#69c7bf"
         id="stop909" />
      <stop
         offset="0.5711"
         stop-color="#6bd0a7"
         id="stop911" />
      <stop
         offset="0.7843"
         stop-color="#6bc187"
         id="stop913" />
      <stop
         offset="1"
         stop-color="#80c077"
         id="stop915" />
    </linearGradient>
  </defs>
  <g
     id="pixel8">
    <g
       id="pixel">
      <path
         class="cls-1"
         d="m 161.7656,80.0068 c 0,44.3164 -29.4341,75.7354 -84.0029,75.7354 H 49.6519 v 75.4033 a 4.6869,4.6869 0 0 1 -4.961,4.9609 H 9.3042 A 4.6869,4.6869 0 0 1 4.3433,231.1455 V 9.564 A 4.6869,4.6869 0 0 1 9.3042,4.603 h 68.4585 c 54.5688,0 84.0029,31.4185 84.0029,75.4038 z m -43.3242,0 c 0,-26.788 -20.5049,-35.3867 -41.6709,-35.3867 H 49.6519 v 70.7735 h 27.1186 c 21.166,0 41.6709,-8.2676 41.6709,-35.3868 z"
         id="P"
         inkscape:connector-curvature="0"
         style="fill:url(#New_Gradient_Swatch_1)" />
      <path
         class="cls-1"
         d="m 232.5376,4.603 h 35.3867 a 4.687,4.687 0 0 1 4.961,4.961 v 221.5815 a 4.6869,4.6869 0 0 1 -4.961,4.9609 h -35.3867 a 4.6869,4.6869 0 0 1 -4.9609,-4.9609 V 9.564 a 4.6869,4.6869 0 0 1 4.9609,-4.961 z"
         id="I"
         inkscape:connector-curvature="0"
         style="fill:url(#New_Gradient_Swatch_1)" />
      <path
         class="cls-1"
         d="m 522.5742,236.1064 h -37.3711 a 6.2982,6.2982 0 0 1 -5.9531,-3.3076 l -45.6392,-75.4033 -45.6391,75.4033 a 6.2973,6.2973 0 0 1 -5.9531,3.3076 h -37.3711 c -3.9688,0 -5.2915,-2.3154 -3.3072,-5.9531 L 409.4683,117.709 344.6475,10.5562 C 342.6631,6.918 343.9863,4.603 347.9546,4.603 h 37.3716 a 6.2975,6.2975 0 0 1 5.9526,3.307 L 433.6108,77.6922 475.9434,7.91 a 6.2962,6.2962 0 0 1 5.9521,-3.3072 h 37.3721 c 3.9678,0 5.291,2.315 3.3066,5.9532 l -64.82,107.1528 68.1279,112.4443 c 1.9841,3.6379 0.6609,5.9533 -3.3079,5.9533 z"
         id="X"
         inkscape:connector-curvature="0"
         style="fill:url(#New_Gradient_Swatch_1)" />
      <path
         class="cls-1"
         d="m 726.293,201.05 v 30.0957 a 4.6869,4.6869 0 0 1 -4.961,4.9609 H 599.2969 a 4.6869,4.6869 0 0 1 -4.961,-4.9609 V 9.564 a 4.687,4.687 0 0 1 4.961,-4.961 H 721.001 a 4.687,4.687 0 0 1 4.9609,4.961 V 39.6592 A 4.687,4.687 0 0 1 721.001,44.62 H 639.6445 V 96.874 H 716.04 a 4.687,4.687 0 0 1 4.961,4.961 v 30.095 a 4.6869,4.6869 0 0 1 -4.961,4.9609 H 639.6445 V 196.09 h 81.6875 a 4.6868,4.6868 0 0 1 4.961,4.96 z"
         id="E"
         inkscape:connector-curvature="0"
         style="fill:url(#New_Gradient_Swatch_1)" />
      <path
         class="cls-1"
         d="m 925.7139,201.05 v 30.0957 a 4.6869,4.6869 0 0 1 -4.961,4.9609 H 805.332 a 4.6869,4.6869 0 0 1 -4.9609,-4.9609 V 9.564 a 4.687,4.687 0 0 1 4.9609,-4.961 h 35.3868 A 4.687,4.687 0 0 1 845.68,9.564 V 196.09 h 75.0732 a 4.6868,4.6868 0 0 1 4.9607,4.96 z"
         id="L"
         inkscape:connector-curvature="0"
         style="fill:url(#New_Gradient_Swatch_1)" />
    </g>
    <path
       style="fill:url(#New_Gradient_Swatch_1)"
       inkscape:connector-curvature="0"
       id="8"
       d="m 986.5625,167.3164 c 0,-29.4336 16.8662,-51.5918 39.6855,-62.1748 -15.2128,-9.9219 -24.8037,-26.457 -24.8037,-44.9775 0,-30.7569 25.1348,-58.2066 65.4825,-58.2066 40.3477,0 65.4824,27.45 65.4824,58.2066 0,18.5205 -9.5908,35.0556 -24.8037,44.9775 22.8193,10.583 39.6855,32.7412 39.6855,62.1748 0,46.3008 -40.0166,73.09 -80.3642,73.09 -40.3476,0 -80.3643,-26.7892 -80.3643,-73.09 z m 117.4043,-1.3223 c 0,-22.8193 -17.8584,-36.0488 -37.04,-36.0488 -19.1816,0 -37.04,13.23 -37.04,36.0488 0,21.4971 16.2051,34.7256 37.04,34.7256 20.8349,0 37.04,-13.2285 37.04,-34.7256 z m -9.9209,-103.5156 c 0,-14.5508 -11.5752,-25.7954 -27.1191,-25.7954 -15.5439,0 -27.1192,11.2446 -27.1192,25.7954 a 27.1274,27.1274 0 0 0 54.2383,0 z"
       class="cls-1" />
  </g>
</svg>
